<svg width="93" height="84" fill="none" xmlns="http://www.w3.org/2000/svg"><path d="M46.225 0L30.72 6.611l1.518 8.588 13.987-6.611V0z" fill="url(#paint0_linear)"/><path d="M8.108 2.01l4.845 8.587L32.239 15.2 30.72 6.611 8.108 2.01z" fill="#fff"/><path d="M79.497 10.597l4.846-8.588-23.388 4.602-1.518 8.588 20.06-4.602z" fill="url(#paint1_linear)"/><path d="M59.437 15.2l1.519-8.589L46.226 0v8.588l13.211 6.611zm-13.212 8.652l10.563 6.611 1.486-8.588-12.049-6.611v8.588z" fill="#fff"/><path d="M70.84 25.861l4.878-8.588-17.444 4.602-1.485 8.588 14.051-4.602z" fill="url(#paint2_linear)"/><path d="M16.733 17.273l4.845 8.588 13.31 4.602-1.487-8.588-16.668-4.602z" fill="#fff"/><path d="M46.225 15.264l-12.824 6.611 1.486 8.588 11.338-6.611v-8.588z" fill="url(#paint3_linear)"/><path d="M62.248 41.125l4.813-8.556-11.435 4.602-1.486 8.556 8.108-4.602z" fill="url(#paint4_linear)"/><path d="M46.225 39.116l7.915 6.61 1.486-8.555-9.4-6.61v8.555z" fill="#fff"/><path d="M36.05 37.171l1.486 8.556 8.69-6.611V30.56L36.05 37.171z" fill="url(#paint5_linear)"/><path d="M25.358 32.57l4.845 8.555 7.333 4.602-1.486-8.556-10.692-4.602zM15.15 79.333l-3.295-10.76H9.368l-3.295 10.76-3.133-10.76H0l4.458 15.07.064.194h2.746l3.36-10.532 3.294 10.532h2.779l4.522-15.264h-2.94l-3.133 10.76zm8.076 4.504h9.11v-2.625h-6.267v-3.694h5.491v-2.593h-5.491v-3.727h6.266v-2.624h-9.11v15.263zm19.026-7.939c-.549-.324-1.26-.68-2.1-1.037l-.193-.097c-.679-.292-1.228-.519-1.616-.745a3.144 3.144 0 01-.872-.681c-.226-.26-.323-.551-.323-.907 0-.325.065-.584.226-.81.162-.227.388-.39.646-.52.291-.129.614-.194.97-.194.549 0 1.066.13 1.582.357.517.227 1.034.616 1.55 1.134l.227.227 1.648-1.977-.194-.194a7 7 0 00-2.165-1.491 6.57 6.57 0 00-2.648-.551c-.84 0-1.648.162-2.359.518-.71.357-1.26.843-1.68 1.491-.42.648-.613 1.394-.613 2.269 0 .842.194 1.555.581 2.139.388.55.873 1.037 1.454 1.36.55.325 1.26.681 2.132 1.038.743.324 1.324.583 1.712.778.355.194.678.453.937.745.226.292.355.616.355 1.005 0 .356-.097.68-.29.94a1.83 1.83 0 01-.776.615c-.355.162-.743.227-1.195.227a3.985 3.985 0 01-1.97-.519c-.647-.324-1.196-.81-1.648-1.393l-.194-.26-1.841 2.042.162.195a7.204 7.204 0 002.455 1.75c.969.453 2.002.648 3.068.648.905 0 1.745-.162 2.488-.486a4.05 4.05 0 001.84-1.523c.453-.68.68-1.491.68-2.398 0-.876-.195-1.653-.614-2.269-.324-.583-.84-1.07-1.422-1.426zm2.94-4.7h3.973v12.64h2.843v-12.64h3.973v-2.624H45.19v2.624zm29.686-1.781a8.264 8.264 0 00-4.07-1.037 8.264 8.264 0 00-4.07 1.037c-1.228.68-2.197 1.653-2.908 2.82a7.64 7.64 0 00-1.066 3.953c0 1.426.356 2.755 1.066 3.954a7.606 7.606 0 002.908 2.819A8.265 8.265 0 0070.808 84a8.265 8.265 0 004.07-1.037 7.846 7.846 0 002.907-2.82 7.639 7.639 0 001.066-3.953 7.64 7.64 0 00-1.066-3.954c-.71-1.166-1.68-2.106-2.907-2.82zm1.13 6.805c0 .94-.225 1.815-.678 2.593a5.129 5.129 0 01-1.873 1.847c-.776.454-1.68.68-2.617.68s-1.841-.226-2.616-.68a4.895 4.895 0 01-1.874-1.847 5.092 5.092 0 01-.678-2.593c0-.94.226-1.815.678-2.592a5.13 5.13 0 011.874-1.848 5.254 5.254 0 012.616-.68c.937 0 1.841.227 2.617.68a5.13 5.13 0 011.873 1.848 5.08 5.08 0 01.679 2.592zm11.662-.162l5.104-7.487h-3.36l-3.327 5.089-3.327-5.089H79.4l5.104 7.487-5.297 7.777h3.392l3.488-5.412 3.521 5.412H93l-5.33-7.777z" fill="#fff"/><defs><linearGradient id="paint0_linear" x1="30.728" y1="7.589" x2="46.219" y2="7.589" gradientUnits="userSpaceOnUse"><stop stop-color="#fff"/><stop offset=".15" stop-color="#FAFAFA"/><stop offset=".338" stop-color="#EAEAEA"/><stop offset=".546" stop-color="#D1D1D1"/><stop offset=".769" stop-color="#ADADAD"/><stop offset="1" stop-color="gray"/></linearGradient><linearGradient id="paint1_linear" x1="59.451" y1="8.594" x2="84.339" y2="8.594" gradientUnits="userSpaceOnUse"><stop stop-color="#fff"/><stop offset=".15" stop-color="#FAFAFA"/><stop offset=".338" stop-color="#EAEAEA"/><stop offset=".546" stop-color="#D1D1D1"/><stop offset=".769" stop-color="#ADADAD"/><stop offset="1" stop-color="gray"/></linearGradient><linearGradient id="paint2_linear" x1="56.788" y1="23.877" x2="75.706" y2="23.877" gradientUnits="userSpaceOnUse"><stop stop-color="#fff"/><stop offset=".15" stop-color="#FAFAFA"/><stop offset=".338" stop-color="#EAEAEA"/><stop offset=".546" stop-color="#D1D1D1"/><stop offset=".769" stop-color="#ADADAD"/><stop offset="1" stop-color="gray"/></linearGradient><linearGradient id="paint3_linear" x1="33.39" y1="22.872" x2="46.219" y2="22.872" gradientUnits="userSpaceOnUse"><stop stop-color="#fff"/><stop offset=".15" stop-color="#FAFAFA"/><stop offset=".338" stop-color="#EAEAEA"/><stop offset=".546" stop-color="#D1D1D1"/><stop offset=".769" stop-color="#ADADAD"/><stop offset="1" stop-color="gray"/></linearGradient><linearGradient id="paint4_linear" x1="54.132" y1="39.145" x2="67.074" y2="39.145" gradientUnits="userSpaceOnUse"><stop stop-color="#fff"/><stop offset=".15" stop-color="#FAFAFA"/><stop offset=".338" stop-color="#EAEAEA"/><stop offset=".546" stop-color="#D1D1D1"/><stop offset=".769" stop-color="#ADADAD"/><stop offset="1" stop-color="gray"/></linearGradient><linearGradient id="paint5_linear" x1="36.052" y1="38.14" x2="46.219" y2="38.14" gradientUnits="userSpaceOnUse"><stop stop-color="#fff"/><stop offset=".15" stop-color="#FAFAFA"/><stop offset=".338" stop-color="#EAEAEA"/><stop offset=".546" stop-color="#D1D1D1"/><stop offset=".769" stop-color="#ADADAD"/><stop offset="1" stop-color="gray"/></linearGradient></defs></svg>