<svg width="64" height="64" fill="none" xmlns="http://www.w3.org/2000/svg"><path d="M62.681 16.637a8.018 8.018 0 00-5.64-5.641c-5.008-1.37-25.042-1.37-25.042-1.37s-20.032 0-25.04 1.318c-2.689.737-4.903 2.952-5.641 5.693C0 21.645 0 32.03 0 32.03s0 10.438 1.318 15.394a8.02 8.02 0 005.641 5.64c5.06 1.371 25.04 1.371 25.04 1.371s20.034 0 25.042-1.318a8.018 8.018 0 005.64-5.64C64 42.468 64 32.083 64 32.083s.052-10.438-1.319-15.446z" fill="#000"/><path d="M25.621 41.625L42.28 32.03l-16.66-9.595v19.19z" fill="#fff"/></svg>