<svg width="48" height="48" fill="none" xmlns="http://www.w3.org/2000/svg"><rect width="48" height="48" rx="10" fill="#000" fill-opacity=".5"/><path d="M28.5 12h-9a7.5 7.5 0 00-7.5 7.5v9a7.5 7.5 0 007.5 7.5h9a7.5 7.5 0 007.5-7.5v-9a7.5 7.5 0 00-7.5-7.5zm5.25 16.5a5.256 5.256 0 01-5.25 5.25h-9a5.256 5.256 0 01-5.25-5.25v-9a5.256 5.256 0 015.25-5.25h9a5.256 5.256 0 015.25 5.25v9z" fill="#fff"/><path d="M24 18a6 6 0 100 12 6 6 0 000-12zm0 9.75A3.755 3.755 0 0120.25 24 3.754 3.754 0 0124 20.25 3.754 3.754 0 0127.75 24 3.755 3.755 0 0124 27.75zm6.45-9.4a.8.8 0 100-1.6.8.8 0 000 1.6z" fill="#fff"/></svg>