<svg width="24" height="24" fill="none" xmlns="http://www.w3.org/2000/svg"><g clip-path="url(#clip0)" fill="#fff"><path d="M23.725 22.399l-6.771-6.771c3.085-3.754 2.875-9.326-.63-12.831-3.73-3.73-9.798-3.73-13.527 0-3.73 3.73-3.73 9.797 0 13.526 3.504 3.505 9.076 3.717 12.83.63l6.772 6.772a.938.938 0 101.326-1.326zm-8.728-7.402c-2.998 2.998-7.876 2.998-10.874 0s-2.998-7.876 0-10.874 7.876-2.998 10.874 0 2.998 7.876 0 10.874z"/><path d="M14.151 8.623h-3.653V4.969a.938.938 0 10-1.875 0v3.654H4.969a.938.938 0 100 1.875h3.654v3.653a.938.938 0 101.875 0v-3.653h3.653a.938.938 0 100-1.875z"/></g><defs><clipPath id="clip0"><path fill="#fff" d="M0 0h24v24H0z"/></clipPath></defs></svg>