<svg width="48" height="48" viewBox="0 0 48 48" fill="none" xmlns="http://www.w3.org/2000/svg">
<rect width="48" height="48" rx="10" fill="black" fill-opacity="0.5"/>
<g clip-path="url(#clip0)">
<path d="M36.7251 34.399L29.9539 27.6278C33.039 23.8743 32.8291 18.3023 29.3234 14.7968C25.5941 11.0674 19.5261 11.0674 15.7968 14.7968C12.0674 18.5261 12.0674 24.5941 15.7968 28.3234C19.3014 31.8281 24.8727 32.0403 28.6278 28.9539L35.399 35.7251C35.7652 36.0913 36.3589 36.0913 36.7251 35.7251C37.0913 35.3589 37.0913 34.7652 36.7251 34.399ZM27.9974 26.9973C24.9993 29.9955 20.121 29.9954 17.1228 26.9973C14.1247 23.9992 14.1247 19.1209 17.1228 16.1228C20.1209 13.1248 24.9992 13.1246 27.9974 16.1228C30.9955 19.1209 30.9955 23.9992 27.9974 26.9973Z" fill="white"/>
<path d="M27.1514 20.6226H23.498V16.9692C23.498 16.4513 23.0782 16.0315 22.5603 16.0315C22.0424 16.0315 21.6226 16.4513 21.6226 16.9692V20.6226H17.9692C17.4513 20.6226 17.0315 21.0424 17.0315 21.5603C17.0315 22.0782 17.4513 22.498 17.9692 22.498H21.6226V26.1514C21.6226 26.6693 22.0424 27.0891 22.5603 27.0891C23.0782 27.0891 23.498 26.6693 23.498 26.1514V22.498H27.1514C27.6693 22.498 28.0891 22.0782 28.0891 21.5603C28.0891 21.0424 27.6693 20.6226 27.1514 20.6226Z" fill="white"/>
</g>
<defs>
<clipPath id="clip0">
<rect width="24" height="24" fill="white" transform="translate(13 12)"/>
</clipPath>
</defs>
</svg>
