<svg width="24" height="24" viewBox="0 0 24 24" fill="none" xmlns="http://www.w3.org/2000/svg">
<g clip-path="url(#clip0)">
<path d="M23.7251 22.399L16.9539 15.6278C20.039 11.8743 19.8291 6.30235 16.3234 2.79675C12.5941 -0.932576 6.52608 -0.932576 2.79675 2.79675C-0.932576 6.52608 -0.932576 12.5941 2.79675 16.3234C6.30141 19.8281 11.8727 20.0403 15.6278 16.9539L22.399 23.7251C22.7652 24.0913 23.3589 24.0913 23.7251 23.7251C24.0913 23.3589 24.0913 22.7652 23.7251 22.399ZM14.9974 14.9973C11.9993 17.9955 7.12097 17.9954 4.12285 14.9973C1.12472 11.9992 1.12472 7.12092 4.12285 4.1228C7.12088 1.12481 11.9992 1.12458 14.9974 4.1228C17.9955 7.12092 17.9955 11.9992 14.9974 14.9973Z" fill="white"/>
<path d="M14.1514 8.62262H10.498V4.96918C10.498 4.45131 10.0782 4.03149 9.56031 4.03149C9.04243 4.03149 8.62262 4.45131 8.62262 4.96918V8.62262H4.96918C4.45131 8.62262 4.03149 9.04243 4.03149 9.56031C4.03149 10.0782 4.45131 10.498 4.96918 10.498H8.62262V14.1514C8.62262 14.6693 9.04243 15.0891 9.56031 15.0891C10.0782 15.0891 10.498 14.6693 10.498 14.1514V10.498H14.1514C14.6693 10.498 15.0891 10.0782 15.0891 9.56031C15.0891 9.04243 14.6693 8.62262 14.1514 8.62262Z" fill="white"/>
</g>
<defs>
<clipPath id="clip0">
<rect width="24" height="24" fill="white"/>
</clipPath>
</defs>
</svg>
