<svg width="93" height="84" viewBox="0 0 93 84" fill="none" xmlns="http://www.w3.org/2000/svg">
<path d="M46.2255 0L30.7201 6.61111L32.2383 15.1991L46.2255 8.58797V0Z" fill="url(#paint0_linear)"/>
<path d="M8.10803 2.00925L12.9535 10.5972L32.2383 15.1991L30.7201 6.6111L8.10803 2.00925Z" fill="white"/>
<path d="M79.4973 10.5972L84.3428 2.00925L60.9555 6.6111L59.4373 15.1991L79.4973 10.5972Z" fill="url(#paint1_linear)"/>
<path d="M59.4373 15.1991L60.9556 6.61111L46.2255 0V8.58797L59.4373 15.1991Z" fill="white"/>
<path d="M46.2255 23.8519L56.7885 30.463L58.2744 21.875L46.2255 15.2639V23.8519Z" fill="white"/>
<path d="M70.8403 25.8612L75.7181 17.2732L58.2745 21.875L56.7886 30.463L70.8403 25.8612Z" fill="url(#paint2_linear)"/>
<path d="M16.733 17.2732L21.5785 25.8612L34.8873 30.463L33.4013 21.875L16.733 17.2732Z" fill="white"/>
<path d="M46.2255 15.2639L33.4012 21.875L34.8872 30.463L46.2255 23.8519V15.2639Z" fill="url(#paint3_linear)"/>
<path d="M62.2477 41.125L67.0608 32.5695L55.6256 37.1713L54.1396 45.7269L62.2477 41.125Z" fill="url(#paint4_linear)"/>
<path d="M46.2255 39.1157L54.1397 45.7269L55.6256 37.1713L46.2255 30.5602V39.1157Z" fill="white"/>
<path d="M36.0499 37.1713L37.5359 45.7269L46.2253 39.1157V30.5602L36.0499 37.1713Z" fill="url(#paint5_linear)"/>
<path d="M25.3578 32.5695L30.2032 41.125L37.536 45.7269L36.05 37.1713L25.3578 32.5695Z" fill="white"/>
<path d="M15.1501 79.3328L11.8552 68.5735H9.36784L6.07294 79.3328L2.93956 68.5735H0L4.4578 83.643L4.5224 83.8374H7.26815L10.6276 73.305L13.9225 83.8374H16.7006L21.223 68.5735H18.2834L15.1501 79.3328Z" fill="white"/>
<path d="M23.2258 83.8374H32.3352V81.2124H26.0685V77.518H31.56V74.9254H26.0685V71.1985H32.3352V68.5735H23.2258V83.8374Z" fill="white"/>
<path d="M42.2521 75.8981C41.703 75.574 40.9923 75.2175 40.1525 74.8611L39.9586 74.7638C39.2803 74.4722 38.7311 74.2453 38.3435 74.0185C37.9882 73.824 37.6974 73.5972 37.4713 73.3379C37.2452 73.0786 37.1483 72.787 37.1483 72.4305C37.1483 72.1064 37.2129 71.8472 37.3744 71.6203C37.5359 71.3935 37.762 71.2314 38.0205 71.1018C38.3112 70.9722 38.6342 70.9074 38.9896 70.9074C39.5387 70.9074 40.0556 71.037 40.5724 71.2638C41.0892 71.4907 41.6061 71.8796 42.1229 72.3981L42.3491 72.625L43.9965 70.6481L43.8027 70.4537C43.1566 69.8055 42.446 69.3194 41.6384 68.9629C40.8308 68.6064 39.9263 68.412 38.9896 68.412C38.1497 68.412 37.3421 68.574 36.6314 68.9305C35.9208 69.287 35.3716 69.7731 34.9517 70.4212C34.5318 71.0694 34.3379 71.8148 34.3379 72.6898C34.3379 73.5324 34.5318 74.2453 34.9194 74.8287C35.307 75.3796 35.7916 75.8657 36.373 76.1898C36.9222 76.5138 37.6328 76.8703 38.505 77.2268C39.248 77.5509 39.8294 77.8101 40.2171 78.0046C40.5724 78.199 40.8954 78.4583 41.1538 78.7499C41.38 79.0416 41.5092 79.3657 41.5092 79.7546C41.5092 80.1111 41.4123 80.4351 41.2185 80.6944C41.0246 80.9537 40.7662 81.1805 40.4432 81.3101C40.0878 81.4722 39.7002 81.537 39.248 81.537C38.5696 81.537 37.9236 81.375 37.2775 81.0185C36.6314 80.6944 36.0823 80.2083 35.6301 79.6249L35.4362 79.3657L33.595 81.4074L33.7565 81.6018C34.4025 82.3148 35.2424 82.9305 36.2115 83.3518C37.1806 83.8055 38.2143 83.9999 39.2803 83.9999C40.1848 83.9999 41.0246 83.8379 41.7676 83.5138C42.5429 83.1898 43.1566 82.6712 43.6089 81.9907C44.0611 81.3101 44.2872 80.5 44.2872 79.5925C44.2872 78.7175 44.0934 77.9398 43.6735 77.324C43.3504 76.7407 42.8336 76.2546 42.2521 75.8981Z" fill="white"/>
<path d="M45.1918 71.1985H49.165V83.8374H52.0077V71.1985H55.9809V68.5735H45.1918V71.1985Z" fill="white"/>
<path d="M74.878 69.4167C73.6505 68.7361 72.2938 68.3796 70.8078 68.3796C69.3219 68.3796 67.9652 68.7361 66.7377 69.4167C65.5102 70.0972 64.5411 71.0695 63.8304 72.2361C63.1197 73.4352 62.7644 74.7639 62.7644 76.1898C62.7644 77.6158 63.1197 78.9445 63.8304 80.1435C64.5411 81.3426 65.5102 82.2824 66.7377 82.963C67.9652 83.6435 69.3219 84 70.8078 84C72.2938 84 73.6505 83.6435 74.878 82.963C76.1055 82.2824 77.0746 81.3102 77.7852 80.1435C78.4959 78.9445 78.8512 77.6158 78.8512 76.1898C78.8512 74.7639 78.4959 73.4352 77.7852 72.2361C77.0746 71.0695 76.1055 70.1296 74.878 69.4167ZM76.0086 76.2222C76.0086 77.162 75.7825 78.037 75.3302 78.8148C74.878 79.5926 74.2319 80.2083 73.4567 80.662C72.6814 81.1157 71.7769 81.3426 70.8401 81.3426C69.9033 81.3426 68.9989 81.1157 68.2236 80.662C67.416 80.2083 66.8023 79.5926 66.35 78.8148C65.8978 78.037 65.6717 77.162 65.6717 76.2222C65.6717 75.2824 65.8978 74.4074 66.35 73.6296C66.8023 72.8519 67.4483 72.2361 68.2236 71.7824C69.0312 71.3287 69.9033 71.1019 70.8401 71.1019C71.7769 71.1019 72.6814 71.3287 73.4567 71.7824C74.2319 72.2361 74.878 72.8519 75.3302 73.6296C75.7825 74.4074 76.0086 75.2824 76.0086 76.2222Z" fill="white"/>
<path d="M87.67 76.0597L92.7739 68.5735H89.4144L86.0872 73.6615L82.76 68.5735H79.4005L84.5043 76.0597L79.2067 83.8374H82.5985L86.0872 78.4254L89.6082 83.8374H93L87.67 76.0597Z" fill="white"/>
<defs>
<linearGradient id="paint0_linear" x1="30.728" y1="7.5893" x2="46.2195" y2="7.5893" gradientUnits="userSpaceOnUse">
<stop stop-color="white"/>
<stop offset="0.1502" stop-color="#FAFAFA"/>
<stop offset="0.3381" stop-color="#EAEAEA"/>
<stop offset="0.5461" stop-color="#D1D1D1"/>
<stop offset="0.7686" stop-color="#ADADAD"/>
<stop offset="1" stop-color="#808080"/>
</linearGradient>
<linearGradient id="paint1_linear" x1="59.4506" y1="8.5943" x2="84.3388" y2="8.5943" gradientUnits="userSpaceOnUse">
<stop stop-color="white"/>
<stop offset="0.1502" stop-color="#FAFAFA"/>
<stop offset="0.3381" stop-color="#EAEAEA"/>
<stop offset="0.5461" stop-color="#D1D1D1"/>
<stop offset="0.7686" stop-color="#ADADAD"/>
<stop offset="1" stop-color="#808080"/>
</linearGradient>
<linearGradient id="paint2_linear" x1="56.7885" y1="23.8774" x2="75.7064" y2="23.8774" gradientUnits="userSpaceOnUse">
<stop stop-color="white"/>
<stop offset="0.1502" stop-color="#FAFAFA"/>
<stop offset="0.3381" stop-color="#EAEAEA"/>
<stop offset="0.5461" stop-color="#D1D1D1"/>
<stop offset="0.7686" stop-color="#ADADAD"/>
<stop offset="1" stop-color="#808080"/>
</linearGradient>
<linearGradient id="paint3_linear" x1="33.3903" y1="22.8723" x2="46.2195" y2="22.8723" gradientUnits="userSpaceOnUse">
<stop stop-color="white"/>
<stop offset="0.1502" stop-color="#FAFAFA"/>
<stop offset="0.3381" stop-color="#EAEAEA"/>
<stop offset="0.5461" stop-color="#D1D1D1"/>
<stop offset="0.7686" stop-color="#ADADAD"/>
<stop offset="1" stop-color="#808080"/>
</linearGradient>
<linearGradient id="paint4_linear" x1="54.1316" y1="39.1449" x2="67.0737" y2="39.1449" gradientUnits="userSpaceOnUse">
<stop stop-color="white"/>
<stop offset="0.1502" stop-color="#FAFAFA"/>
<stop offset="0.3381" stop-color="#EAEAEA"/>
<stop offset="0.5461" stop-color="#D1D1D1"/>
<stop offset="0.7686" stop-color="#ADADAD"/>
<stop offset="1" stop-color="#808080"/>
</linearGradient>
<linearGradient id="paint5_linear" x1="36.0524" y1="38.1398" x2="46.2193" y2="38.1398" gradientUnits="userSpaceOnUse">
<stop stop-color="white"/>
<stop offset="0.1502" stop-color="#FAFAFA"/>
<stop offset="0.3381" stop-color="#EAEAEA"/>
<stop offset="0.5461" stop-color="#D1D1D1"/>
<stop offset="0.7686" stop-color="#ADADAD"/>
<stop offset="1" stop-color="#808080"/>
</linearGradient>
</defs>
</svg>
